<?xml version="1.0" encoding="UTF-8"?>
<!DOCTYPE svg PUBLIC "-//W3C//DTD SVG 1.1//EN" "http://www.w3.org/Graphics/SVG/1.1/DTD/svg11.dtd">
<!-- Creator: CorelDRAW 2021.5 -->
<svg xmlns="http://www.w3.org/2000/svg" xml:space="preserve" width="1.25984in" height="1.25984in" version="1.1" style="shape-rendering:geometricPrecision; text-rendering:geometricPrecision; image-rendering:optimizeQuality; fill-rule:evenodd; clip-rule:evenodd"
viewBox="0 0 1259.84 1259.84"
 xmlns:xlink="http://www.w3.org/1999/xlink"
 xmlns:xodm="http://www.corel.com/coreldraw/odm/2003">
 <defs>
  <style type="text/css">
   <![CDATA[
    .fil0 {fill:#B3B8C1;fill-rule:nonzero}
   ]]>
  </style>
 </defs>
 <g id="Layer_x0020_1">
  <metadata id="CorelCorpID_0Corel-Layer"/>
  <path class="fil0" d="M491.18 627.29l0 11.45c-0.82,20.98 -5.65,41.07 -14.5,60.28 -8.86,19.19 -20.78,36.02 -35.76,50.45 -14.98,14.45 -32.2,25.69 -51.7,33.73 -19.46,8.02 -39.69,12.05 -60.69,12.05 -21.51,0 -42.14,-4.23 -61.9,-12.68 -19.75,-8.43 -37.12,-20.15 -52.1,-35.14 -14.98,-14.98 -26.64,-32.35 -34.94,-52.1 -8.3,-19.76 -12.44,-40.53 -12.44,-62.31 0,-22.07 4.15,-42.98 12.44,-62.73 8.31,-19.75 19.96,-37.12 34.94,-52.09 14.98,-14.98 32.35,-26.7 52.1,-35.15 19.76,-8.44 40.39,-12.67 61.9,-12.67 20.99,0 41.23,4.09 60.69,12.27 19.5,8.17 36.72,19.47 51.7,33.92 14.98,14.44 26.9,31.26 35.76,50.47 8.85,19.2 13.68,39.29 14.5,60.26zm551.65 6.13l0 0c0,21.8 -4.22,42.5 -12.66,62.13 -8.44,19.6 -20.19,36.76 -35.16,51.48 -14.97,14.99 -32.28,26.56 -51.89,34.73 -19.61,8.17 -40.46,12.26 -62.52,12.26 -22.08,0 -42.99,-4.08 -62.74,-12.26 -19.75,-8.18 -37.11,-19.74 -52.1,-34.73 -15,-14.72 -26.62,-31.88 -34.94,-51.48 -8.3,-19.63 -12.46,-40.33 -12.46,-62.13 0,-22.06 4.16,-43.04 12.46,-62.92 8.32,-19.89 19.94,-37.46 34.94,-52.72 14.99,-15.25 32.42,-27.09 52.31,-35.54 19.89,-8.44 40.72,-12.66 62.53,-12.66 21.78,0 42.57,4.22 62.3,12.66 19.76,8.45 37.13,20.29 52.1,35.54 14.97,15.26 26.71,32.88 35.16,52.92 8.44,20.03 12.66,40.94 12.66,62.72zm-416.01 565.52l0 0c-312.05,0 -565.93,-253.87 -565.93,-565.93 0,-312.05 253.88,-565.92 565.93,-565.92 285.08,0 521.48,211.94 560.24,486.5l-97.22 82.28 0 -3.68c0,-28.33 -5.39,-55.3 -16.15,-80.91 -10.76,-25.61 -25.67,-48.08 -44.74,-67.43 -19.34,-19.06 -41.83,-33.98 -67.44,-44.75 -25.59,-10.76 -52.57,-16.14 -80.89,-16.14 -32.43,0 -63.35,7.77 -92.76,23.3 -27.79,14.99 -50.96,35.44 -69.48,61.31l0 -61.7c0,-9.82 -4.91,-14.71 -14.7,-14.71l-16.76 0c-10.36,0 -15.52,4.89 -15.52,14.71l0 213.73c-1.68,1.06 -3.3,2.03 -5.3,3.66l-127.91 107.88 0 -327.32c0,-4.09 -1.17,-7.29 -3.47,-9.61 -2.32,-2.31 -5.53,-3.47 -9.61,-3.47l-20.83 0c-4.1,0 -7.37,1.17 -9.81,3.47 -2.44,2.32 -3.67,5.52 -3.67,9.61l0 64.56c-18.52,-25.87 -41.7,-46.3 -69.47,-61.29 -29.43,-15.53 -60.21,-23.3 -92.37,-23.3 -28.33,0 -55.17,5.39 -80.52,16.14 -25.31,10.77 -47.65,25.83 -67,45.15 -19.34,19.35 -34.39,41.81 -45.15,67.43 -10.76,25.59 -16.16,52.58 -16.16,80.91 0,28.33 5.39,55.24 16.16,80.7 10.76,25.47 25.8,47.74 45.15,66.82 19.07,19.34 41.33,34.39 66.81,45.13 25.48,10.77 52.37,16.16 80.71,16.16 32.42,0 63.21,-7.9 92.37,-23.71 27.23,-14.43 50.38,-34.58 69.47,-60.45l0 60.05c0,9.81 5.03,14.71 15.11,14.71l19.61 0c5.16,0 9.53,-1.63 13.07,-4.9l132.81 -109.61 0 303.32c0,4.63 1.34,8.29 4.08,11.03 2.72,2.71 6.53,4.07 11.44,4.07l16.76 0c9.8,0 14.7,-5.02 14.7,-15.09l0 -265.22c18.79,25.89 41.96,46.19 69.48,60.89 29.13,15.8 60.07,23.71 92.76,23.71 48.22,0 90.85,-14.3 127.89,-42.9 16.9,-12.81 31.73,-28 44.54,-45.57 12.8,-17.59 23.43,-36.85 31.87,-57.82 14.43,-11.99 40.19,-32.97 77.25,-62.93l12.65 -10.22c6.62,-5.31 12.28,-9.87 17.28,-13.91 0.37,8.43 0.64,16.85 0.64,25.36 0,312.05 -253.89,565.93 -565.91,565.93zm0 -1179.31l0 0c-338.22,0 -613.37,275.15 -613.37,613.38 0,338.23 275.15,613.38 613.37,613.38 338.21,0 613.38,-275.15 613.38,-613.38 0,-338.23 -275.17,-613.38 -613.38,-613.38z"/>
 </g>
</svg>
