<?xml version="1.0" standalone="no"?>
<!DOCTYPE svg PUBLIC "-//W3C//DTD SVG 20010904//EN"
 "http://www.w3.org/TR/2001/REC-SVG-20010904/DTD/svg10.dtd">
<svg version="1.0" xmlns="http://www.w3.org/2000/svg"
 width="1024.000000pt" height="1024.000000pt" viewBox="0 0 1024.000000 1024.000000"
 preserveAspectRatio="xMidYMid meet">

<g transform="translate(0.000000,1024.000000) scale(0.100000,-0.100000)"
fill="#FFFFFF" stroke="none">
<path d="M4910 9206 l0 -1033 -56 -11 c-108 -22 -224 -105 -270 -195 -39 -75
-34 -184 12 -244 l26 -34 -25 -38 c-62 -93 -58 -219 9 -285 15 -15 13 -20 -14
-64 -54 -83 -52 -183 3 -258 l23 -30 -28 -43 c-35 -51 -47 -131 -31 -196 15
-60 16 -59 -26 -74 -63 -22 -211 -99 -271 -140 -258 -176 -491 -505 -596 -838
-53 -169 -69 -276 -70 -453 0 -195 14 -250 88 -354 84 -118 170 -161 321 -161
88 0 107 3 157 27 82 38 122 72 168 140 54 81 78 164 90 314 5 69 17 154 25
189 27 120 97 249 192 356 l49 56 36 -33 c52 -47 105 -59 171 -40 51 15 52 15
67 -6 60 -88 123 -122 225 -122 100 0 171 38 237 126 12 16 16 16 61 1 58 -19
111 -8 168 37 l35 28 38 -46 c89 -110 145 -264 153 -424 7 -122 -5 -196 -47
-298 -57 -139 -142 -243 -437 -538 -117 -117 -245 -254 -283 -303 -170 -221
-270 -424 -322 -654 -18 -78 -21 -136 -25 -423 -4 -245 -2 -341 7 -362 24 -57
44 -60 412 -60 313 0 335 1 365 20 18 11 35 30 37 42 3 13 7 133 9 268 5 279
18 350 86 494 56 119 114 191 333 415 349 356 457 487 560 678 149 276 198
666 124 986 -33 141 -61 219 -128 352 -158 315 -396 559 -685 704 l-82 41 14
35 c30 70 10 190 -42 247 -14 16 -13 20 11 48 55 66 58 165 6 256 -19 35 -26
55 -19 60 20 12 59 109 59 146 0 46 -34 139 -59 162 -19 17 -19 19 12 62 25
36 32 57 35 109 4 55 0 73 -22 119 -48 97 -173 189 -277 203 l-39 6 0 1033 0
1034 -101 0 c-93 0 -103 -2 -121 -22 -11 -12 -17 -31 -14 -41 6 -25 -163 -204
-176 -185 -4 7 -8 66 -8 131 l0 117 -75 0 -75 0 0 -1034z m360 984 c0 -5 -5
-10 -11 -10 -5 0 -7 5 -4 10 3 6 8 10 11 10 2 0 4 -4 4 -10z m-20 -312 c0 -31
3 -36 17 -31 12 5 6 -8 -17 -37 -49 -63 -171 -190 -181 -190 -15 0 -11 218 5
248 8 15 44 56 82 92 l67 65 13 -55 c7 -30 13 -72 14 -92z m-23 -232 c-3 -8 0
-20 8 -26 10 -8 13 -30 10 -83 l-4 -72 19 25 c10 14 21 22 24 19 9 -8 -69
-107 -142 -182 -79 -79 -80 -78 -81 61 -1 62 4 102 13 120 12 22 51 61 141
142 15 13 18 12 12 -4z m25 -329 c-17 -18 -20 -30 -15 -57 4 -19 6 -63 6 -98
-2 -57 0 -62 14 -50 13 10 12 6 -3 -17 -39 -62 -164 -195 -183 -195 -8 0 -11
37 -11 121 l0 121 102 99 c56 54 104 99 107 99 2 0 -5 -10 -17 -23z m-14 -514
c-2 -35 -1 -63 1 -63 2 0 12 11 23 26 11 14 22 23 25 21 7 -8 -62 -95 -142
-179 -85 -90 -85 -90 -85 66 l0 100 81 80 82 81 9 -34 c5 -19 8 -63 6 -98z
m22 -198 c-6 -8 -8 -20 -4 -26 5 -8 3 -9 -6 -4 -9 6 -10 2 -5 -16 7 -23 6 -23
-11 -7 -17 17 -17 19 6 43 25 27 41 35 20 10z m-24 -80 c7 -19 14 -58 14 -87
l0 -53 21 25 21 25 -17 -30 c-50 -85 -168 -215 -197 -215 -16 0 -18 10 -18
111 l0 111 72 74 c39 41 75 74 80 74 5 0 16 -16 24 -35z m239 -515 c22 -7 62
-28 88 -48 55 -39 52 -45 -30 -63 -50 -12 -54 -11 -88 15 -32 25 -94 56 -112
56 -4 0 19 -26 51 -59 l58 -59 -253 -5 c-263 -5 -314 -12 -408 -53 l-53 -24 4
59 c7 98 69 158 198 188 69 16 484 10 545 -7z m-120 -330 c61 -6 127 -15 148
-21 40 -11 117 -72 105 -84 -4 -4 -37 -10 -73 -13 -56 -4 -71 -2 -93 15 -40
30 -93 55 -100 48 -3 -3 21 -32 53 -65 l59 -60 -249 0 c-263 0 -340 -9 -430
-49 l-45 -20 0 57 c0 44 5 64 26 94 31 45 105 84 184 97 78 12 285 13 415 1z
m32 -340 c118 -13 157 -26 198 -64 40 -38 45 -55 13 -49 -13 2 -43 0 -68 -6
-42 -10 -48 -8 -88 20 -40 29 -102 54 -102 42 0 -3 23 -28 51 -57 l51 -51
-254 -6 c-257 -6 -348 -18 -418 -54 -16 -8 -31 -15 -35 -15 -12 0 -4 94 11
126 29 60 111 104 219 117 65 8 344 6 422 -3z m-6 -331 c116 -12 150 -23 202
-69 33 -29 52 -60 27 -45 -6 4 -35 1 -64 -6 -52 -11 -56 -11 -103 18 -26 16
-63 35 -82 41 -32 11 -30 8 30 -52 l64 -64 -265 -5 c-270 -5 -361 -16 -429
-52 l-31 -16 0 61 c0 57 2 63 41 105 45 49 94 71 184 84 87 12 307 13 426 0z
m-173 -423 c53 -50 92 -126 90 -176 l-1 -43 -98 104 c-91 96 -112 132 -92 153
14 14 69 -7 101 -38z m-365 -26 c24 -21 56 -62 71 -90 25 -46 27 -56 20 -117
l-7 -67 -25 30 c-14 16 -53 60 -88 98 -63 69 -64 70 -64 128 0 55 1 58 25 58
16 0 42 -15 68 -40z m745 -103 c28 -41 32 -57 32 -111 l0 -64 -75 77 -75 77 0
82 0 81 43 -47 c24 -26 58 -69 75 -95z m-1008 -50 l0 -123 -52 -13 c-172 -44
-336 -113 -441 -185 -78 -54 -77 -45 9 69 112 150 257 270 414 344 36 17 66
31 68 31 1 0 2 -55 2 -123z m1290 73 c50 -34 61 -48 80 -97 53 -141 63 -200
64 -373 1 -156 -14 -280 -33 -280 -4 0 -15 17 -25 37 -22 47 -80 136 -123 189
l-33 41 0 262 c0 143 2 261 6 261 3 0 32 -18 64 -40z m-635 -146 l36 -50 -21
-48 c-21 -51 -27 -91 -10 -81 6 3 7 -1 4 -9 -3 -9 -2 -16 3 -16 12 0 35 39 28
50 -3 5 -1 11 5 15 16 10 12 -35 -6 -52 -8 -9 -12 -23 -9 -32 7 -18 -62 50
-124 122 l-41 48 0 107 0 107 50 -55 c27 -30 66 -78 85 -106z m-372 -73 c36
-45 59 -88 49 -93 -4 -2 -17 -21 -29 -43 -26 -47 -53 -55 -83 -23 -39 41 -50
81 -50 189 l0 102 43 -48 c23 -27 55 -65 70 -84z m718 -35 c33 -44 31 -61 -8
-113 -27 -37 -61 -43 -86 -15 -12 13 -16 46 -19 141 l-3 123 44 -48 c24 -27
56 -67 72 -88z m524 54 c-7 -12 56 -85 71 -84 12 2 12 -1 3 -12 -11 -13 -5
-19 16 -14 5 1 7 -2 3 -6 -5 -4 9 -39 31 -78 47 -86 78 -186 92 -297 6 -46 13
-86 16 -89 3 -3 4 10 1 28 -2 17 -1 32 3 32 4 0 10 10 12 23 3 15 5 10 6 -13
4 -102 -49 -265 -133 -412 -42 -74 -187 -280 -193 -274 -2 1 4 37 12 80 19 98
19 280 1 367 -14 63 -13 73 15 210 43 213 37 414 -16 591 -7 21 -4 19 28 -11
20 -19 34 -37 32 -41z m41 -24 c17 -15 22 -26 15 -30 -6 -4 -11 -2 -11 4 0 7
-10 20 -22 31 -13 10 -19 18 -15 19 4 0 19 -11 33 -24z m-1572 -64 c3 -5 3
-25 0 -44 -5 -27 -10 -34 -23 -31 -17 4 -128 -51 -201 -101 -86 -58 -115 -92
-134 -153 -8 -24 9 -33 17 -10 2 6 3 4 2 -5 -2 -10 2 -18 8 -18 6 0 -34 -27
-88 -61 -55 -33 -114 -71 -132 -85 -62 -47 -159 -150 -201 -213 -23 -35 -42
-57 -42 -48 0 38 42 211 68 283 81 223 219 337 537 445 140 48 179 56 189 41z
m677 -190 c11 -19 9 -26 -12 -48 -32 -34 -63 -46 -93 -34 -17 6 -26 5 -29 -3
-2 -7 -5 -1 -6 13 0 14 -4 79 -7 144 l-6 120 70 -85 c39 -46 77 -94 83 -107z
m39 78 c0 -5 -2 -10 -4 -10 -3 0 -8 5 -11 10 -3 6 -1 10 4 10 6 0 11 -4 11
-10z m-751 -114 c-2 -2 -15 -9 -29 -15 -24 -11 -24 -11 -6 3 16 13 49 24 35
12z m578 -98 c-3 -8 -6 -5 -6 6 -1 11 2 17 5 13 3 -3 4 -12 1 -19z m-815 -124
c-12 -8 -22 -19 -22 -24 0 -4 -24 -48 -53 -96 -109 -181 -137 -231 -182 -326
-25 -54 -45 -100 -45 -102 0 -6 23 -2 38 7 18 12 14 -1 -8 -25 -12 -13 -20
-17 -20 -9 0 11 -3 11 -16 0 -8 -7 -13 -21 -11 -31 3 -10 1 -16 -4 -12 -5 3
-10 -1 -11 -8 0 -7 -2 -17 -2 -23 -2 -14 -66 -124 -76 -130 -11 -7 -65 56 -91
107 -11 22 -23 64 -26 92 -10 100 80 270 204 386 73 69 201 156 284 195 56 25
78 25 41 -1z m2155 -336 c12 -177 -50 -355 -185 -531 -24 -32 -45 -65 -46 -73
-5 -33 -82 -69 -361 -169 -66 -24 -129 -47 -140 -51 -11 -4 16 35 61 87 44 51
107 130 139 174 32 44 95 123 140 175 101 117 179 223 232 315 40 69 112 239
114 266 1 45 41 -121 46 -193z m-2331 -250 c-26 -36 -35 -64 -47 -141 -6 -40
-16 -75 -23 -79 -15 -10 -84 -10 -90 0 -3 5 4 24 16 42 26 43 148 200 155 200
3 0 -2 -10 -11 -22z m2184 -302 c0 -2 -17 -16 -37 -31 l-38 -28 29 31 c26 28
46 40 46 28z m-38 -142 c-12 -8 -22 -21 -22 -28 0 -7 -11 -39 -24 -72 -38 -95
-41 -108 -22 -101 9 4 16 2 16 -2 0 -5 10 -7 22 -3 19 5 18 2 -8 -25 -75 -78
-275 -165 -532 -233 -227 -59 -347 -107 -461 -182 -41 -27 -37 -18 38 77 67
84 186 205 261 264 81 64 168 104 382 174 106 35 229 83 273 105 82 42 116 54
77 26z m-348 -487 c-17 -7 -48 -29 -69 -50 -23 -22 -83 -59 -145 -88 -58 -28
-125 -60 -149 -72 -57 -28 -171 -140 -171 -167 0 -26 22 -35 52 -20 59 31 -6
-14 -82 -56 -99 -54 -143 -87 -223 -163 -58 -56 -177 -210 -177 -229 0 -6 -5
-14 -10 -17 -24 -15 19 228 58 324 59 150 127 238 239 311 95 63 211 108 434
170 101 28 198 54 214 59 44 13 65 11 29 -2z m-64 -151 c0 -2 -8 -10 -17 -17
-16 -13 -17 -12 -4 4 13 16 21 21 21 13z m-50 -51 c-7 -9 -15 -13 -19 -10 -3
3 1 10 9 15 21 14 24 12 10 -5z m-30 -19 c0 -2 -8 -10 -17 -17 -16 -13 -17
-12 -4 4 13 16 21 21 21 13z m-60 -46 c-8 -5 -19 -10 -25 -10 -5 0 -3 5 5 10
8 5 20 10 25 10 6 0 3 -5 -5 -10z m-267 -227 c-7 -2 -13 -13 -13 -24 0 -24
-34 -94 -89 -183 -23 -38 -47 -79 -52 -90 -6 -12 -15 -30 -22 -41 -55 -92 -70
-120 -82 -155 -9 -27 -10 -40 -3 -40 7 0 6 -6 -2 -15 -7 -9 -10 -18 -6 -22 3
-3 6 0 6 7 0 7 3 11 6 7 4 -3 15 4 26 16 14 16 13 11 -5 -18 -33 -56 -82 -163
-97 -210 -7 -22 -16 -44 -21 -49 -5 -5 -45 -11 -90 -13 l-81 -4 4 143 c4 132
6 148 34 214 46 106 98 179 203 284 92 92 245 200 281 199 10 0 11 -2 3 -6z
m-119 -395 c-16 -18 -32 -37 -36 -42 -5 -6 -8 -6 -8 0 0 10 58 74 67 74 4 0
-6 -15 -23 -32z m-49 -8 c3 -5 1 -10 -4 -10 -6 0 -11 5 -11 10 0 6 2 10 4 10
3 0 8 -4 11 -10z m-17 -81 c-26 -34 -24 -34 -32 -12 -4 10 -4 14 0 10 10 -10
45 23 37 36 -3 6 -1 7 5 3 8 -5 5 -16 -10 -37z m40 -169 c-5 -52 -8 -112 -6
-132 l3 -36 -60 -4 c-33 -2 -62 -2 -64 -1 -9 6 60 158 97 214 20 32 37 57 38
56 0 -1 -3 -45 -8 -97z"/>
<path d="M5060 2534 c-199 -43 -369 -208 -420 -408 -51 -199 -4 -393 130 -539
269 -293 752 -222 929 137 40 82 53 143 52 253 -1 171 -50 292 -166 408 -139
139 -327 192 -525 149z m134 -166 c-4 -7 -22 -31 -40 -53 -99 -124 -180 -318
-238 -569 l-7 -29 -29 28 c-53 51 -75 117 -75 230 0 91 3 106 31 166 58 121
151 196 276 224 82 17 91 18 82 3z m70 -63 c-4 -9 1 -17 12 -21 28 -10 84 -66
84 -83 0 -14 1 -14 10 -1 16 24 12 2 -19 -110 -36 -132 -68 -231 -82 -250 -8
-11 -9 -9 -3 10 4 14 9 31 12 39 3 9 1 12 -6 8 -6 -4 -12 0 -14 9 -2 9 -18
-13 -38 -51 -19 -37 -42 -75 -52 -84 -29 -32 -82 -59 -126 -65 -24 -3 -48 -9
-54 -12 -19 -12 2 85 47 219 43 127 114 269 180 360 34 45 61 63 49 32z m220
-330 c-11 -89 -50 -146 -151 -226 -20 -16 -16 12 12 74 13 31 36 98 50 149 15
51 34 115 42 142 l16 50 18 -70 c13 -47 17 -85 13 -119z m-232 -107 c-7 -7
-12 -8 -12 -2 0 14 12 26 19 19 2 -3 -1 -11 -7 -17z m248 -121 c0 -2 -12 -14
-27 -28 l-26 -24 19 27 c16 23 34 36 34 25z m-287 -22 c-3 -9 -8 -14 -10 -11
-3 3 -2 9 2 15 9 16 15 13 8 -4z"/>
<path d="M4580 927 c-17 -8 -26 -22 -28 -43 -6 -61 -27 -59 627 -59 555 0 599
1 624 18 40 26 37 64 -8 83 -47 19 -1176 21 -1215 1z"/>
</g>
</svg>
